<svg width="48" height="48" viewBox="0 0 48 48" fill="none" xmlns="http://www.w3.org/2000/svg">
  <path d="M8 36C12.4183 36 16 32.4183 16 28C16 23.5817 12.4183 20 8 20" stroke="#4A90E2" stroke-width="2" stroke-linecap="round" stroke-linejoin="round"/>
  <path d="M8 20C10.2091 20 12 18.2091 12 16C12 13.7909 10.2091 12 8 12" stroke="#4A90E2" stroke-width="2" stroke-linecap="round" stroke-linejoin="round"/>
  <path d="M8 36H44" stroke="#4A90E2" stroke-width="2" stroke-linecap="round" stroke-linejoin="round"/>
  <path d="M28 36C28 30.4772 23.5228 26 18 26C15.4 26 13.0367 26.8948 11.1775 28.3775" stroke="#4A90E2" stroke-width="2" stroke-linecap="round" stroke-linejoin="round"/>
  <path d="M36 36C36 24.9543 27.0457 16 16 16C13.9071 16 11.8971 16.3344 10.0256 16.9487" stroke="#4A90E2" stroke-width="2" stroke-linecap="round" stroke-linejoin="round"/>
  <path d="M32 12L36 8" stroke="#4A90E2" stroke-width="2" stroke-linecap="round" stroke-linejoin="round"/>
  <path d="M36 16L40 12" stroke="#4A90E2" stroke-width="2" stroke-linecap="round" stroke-linejoin="round"/>
</svg>
